<?xml version="1.0" standalone="no"?>
<!DOCTYPE svg PUBLIC "-//W3C//DTD SVG 20010904//EN"
 "http://www.w3.org/TR/2001/REC-SVG-20010904/DTD/svg10.dtd">
<svg version="1.0" xmlns="http://www.w3.org/2000/svg"
 width="1024.000000pt" height="1024.000000pt" viewBox="0 0 1024.000000 1024.000000"
 preserveAspectRatio="xMidYMid meet">
<metadata>
Created by potrace 1.11, written by Peter Selinger 2001-2013
</metadata>
<g transform="translate(0.000000,1024.000000) scale(0.100000,-0.100000)"
fill="#000000" stroke="none">
<path d="M4857 10232 c-4 -5 -28 -8 -54 -7 -27 1 -55 -2 -64 -6 -8 -4 -21 -4
-29 1 -8 5 -19 6 -25 2 -13 -9 -29 -11 -97 -14 -32 -1 -58 -5 -58 -8 0 -3 -17
-6 -38 -6 -20 -1 -59 -5 -87 -9 -27 -4 -57 -9 -65 -9 -9 -1 -21 -5 -28 -10 -7
-4 -12 -2 -12 6 0 8 -3 9 -8 3 -4 -6 -14 -10 -22 -10 -8 1 -19 -2 -25 -6 -5
-4 -13 -7 -18 -7 -4 0 -33 -3 -65 -8 -31 -4 -60 -7 -64 -6 -5 1 -8 -1 -8 -5 0
-5 -16 -9 -37 -10 -20 -1 -39 -6 -42 -10 -3 -4 -15 -9 -26 -10 -36 -4 -73 -11
-97 -19 -12 -4 -30 -9 -38 -10 -34 -6 -50 -10 -56 -16 -3 -4 -12 -4 -19 -2 -7
3 -16 0 -20 -5 -3 -6 -11 -9 -16 -6 -5 4 -9 2 -9 -4 0 -5 -11 -8 -25 -6 -14 1
-25 -2 -25 -6 0 -5 -9 -9 -19 -9 -11 0 -32 -5 -48 -12 -15 -6 -30 -12 -33 -13
-84 -21 -110 -31 -110 -39 0 -5 -3 -7 -6 -4 -3 4 -21 0 -40 -8 -19 -8 -34 -11
-34 -8 0 4 -7 1 -15 -6 -8 -7 -15 -9 -15 -5 0 4 -7 2 -15 -5 -8 -6 -20 -8 -26
-4 -8 4 -9 3 -5 -4 4 -7 2 -13 -3 -13 -21 -3 -26 -4 -38 -12 -7 -5 -13 -6 -13
-3 0 3 -16 -3 -35 -14 -20 -11 -40 -20 -45 -20 -10 0 -26 -7 -170 -72 -114
-52 -155 -73 -162 -83 -4 -5 -8 -6 -8 -1 0 5 -7 3 -15 -4 -8 -7 -15 -9 -15 -4
0 5 -7 0 -16 -11 -8 -11 -18 -20 -22 -19 -16 2 -42 -9 -42 -18 0 -6 -7 -8 -15
-4 -9 3 -15 0 -15 -10 0 -8 -4 -13 -8 -10 -5 3 -24 -5 -43 -17 -19 -11 -36
-22 -39 -22 -8 -2 -67 -37 -122 -72 -27 -18 -56 -33 -64 -33 -9 0 -12 -4 -9
-10 3 -5 2 -10 -4 -10 -12 0 -156 -90 -183 -114 -10 -9 -22 -16 -27 -16 -5 0
-12 -7 -15 -16 -3 -8 -10 -12 -16 -9 -6 3 -13 -1 -16 -9 -3 -9 -13 -16 -20
-16 -8 0 -17 -7 -20 -15 -4 -8 -12 -15 -20 -15 -7 0 -20 -10 -28 -22 -9 -12
-16 -19 -16 -15 0 7 -14 -3 -76 -57 -19 -15 -34 -25 -34 -22 0 3 -8 -2 -18
-11 -11 -10 -17 -22 -14 -27 3 -5 1 -6 -4 -3 -6 3 -27 -9 -47 -28 -20 -19 -37
-32 -37 -30 0 2 -20 -16 -44 -41 -25 -24 -47 -44 -50 -44 -3 0 -33 -27 -67
-60 -34 -33 -65 -60 -71 -60 -5 0 -6 -4 -3 -10 3 -5 -1 -10 -9 -10 -9 0 -16
-7 -16 -15 0 -8 -4 -14 -8 -12 -8 2 -91 -78 -92 -88 0 -3 -3 -5 -6 -4 -4 0
-14 -11 -24 -25 -9 -15 -20 -23 -23 -19 -4 3 -7 -1 -7 -11 0 -9 -4 -14 -10
-11 -5 3 -10 1 -10 -6 0 -6 -17 -27 -37 -45 -20 -19 -34 -34 -30 -34 3 0 -13
-20 -36 -44 -23 -24 -53 -58 -67 -75 -14 -18 -37 -45 -53 -62 -15 -16 -27 -32
-27 -34 0 -6 -28 -41 -57 -72 -12 -13 -19 -23 -16 -23 3 0 -4 -9 -16 -19 -12
-11 -22 -23 -22 -28 0 -4 -9 -18 -19 -31 -11 -12 -20 -26 -20 -30 0 -4 -14
-22 -30 -41 -17 -18 -32 -38 -33 -44 -1 -6 -12 -22 -24 -36 -12 -14 -27 -38
-34 -53 -6 -15 -14 -28 -18 -28 -4 0 -15 -16 -25 -35 -11 -19 -23 -35 -27 -35
-5 0 -6 -6 -3 -14 3 -7 -2 -16 -10 -19 -9 -4 -16 -13 -16 -22 0 -8 -4 -15 -10
-15 -5 0 -10 -6 -10 -14 0 -7 -7 -19 -15 -26 -8 -7 -12 -16 -9 -21 3 -5 0 -9
-6 -9 -6 0 -8 -4 -5 -10 3 -5 1 -10 -4 -10 -6 0 -11 -7 -11 -15 0 -8 -3 -15
-8 -15 -4 0 -18 -25 -32 -55 -14 -30 -28 -55 -32 -55 -5 0 -8 -6 -8 -14 0 -7
-9 -25 -21 -40 -11 -14 -18 -30 -15 -35 3 -5 -1 -14 -9 -21 -8 -7 -15 -19 -15
-26 0 -8 -4 -14 -10 -14 -5 0 -9 -3 -8 -7 1 -5 -11 -35 -27 -68 -16 -33 -28
-63 -27 -67 1 -5 -3 -8 -8 -8 -6 0 -10 -8 -8 -17 2 -11 -2 -17 -10 -15 -7 1
-12 -3 -10 -10 3 -20 -22 -88 -33 -88 -6 0 -8 -4 -5 -8 3 -5 -1 -20 -9 -35 -8
-15 -12 -27 -9 -27 2 0 -2 -10 -11 -23 -8 -13 -12 -27 -8 -30 3 -4 1 -7 -6 -7
-7 0 -10 -3 -7 -8 2 -4 -6 -29 -18 -54 -13 -26 -19 -45 -14 -42 5 4 5 -3 -1
-15 -6 -12 -16 -30 -21 -41 -6 -12 -8 -25 -5 -30 4 -6 2 -10 -2 -10 -7 0 -45
-107 -59 -162 -1 -5 -3 -11 -4 -15 -1 -5 -2 -11 -1 -15 0 -4 -6 -23 -14 -42
-9 -20 -15 -37 -14 -38 0 -2 -2 -10 -5 -18 -3 -12 -20 -79 -32 -132 -1 -5 -2
-9 -4 -10 -1 -2 -4 -16 -6 -33 -3 -16 -9 -34 -14 -40 -4 -5 -7 -27 -6 -47 1
-21 -2 -38 -5 -38 -7 0 -22 -62 -23 -97 -1 -12 -4 -24 -8 -28 -4 -4 -4 -13 -1
-21 3 -8 1 -14 -5 -14 -5 0 -7 -11 -4 -25 2 -14 -2 -33 -9 -42 -12 -14 -12
-16 1 -8 12 6 12 5 3 -5 -6 -7 -9 -19 -6 -26 3 -8 -1 -14 -8 -14 -9 0 -10 -3
-4 -8 12 -9 16 -44 4 -36 -8 4 -12 -31 -12 -98 0 -10 -3 -18 -7 -18 -3 0 -5
-17 -4 -37 1 -21 -3 -44 -8 -50 -7 -9 -7 -13 1 -13 7 0 9 -5 4 -12 -4 -7 -9
-32 -10 -55 -2 -24 -4 -62 -6 -85 -1 -24 -6 -49 -10 -55 -5 -7 -4 -13 1 -13 5
0 9 -7 9 -15 0 -8 -3 -15 -6 -15 -3 0 -7 -11 -7 -25 -1 -14 2 -22 8 -19 6 4 7
0 1 -12 -5 -11 -9 -67 -9 -126 1 -60 -3 -108 -8 -108 -5 0 -4 -6 1 -12 5 -7 9
-47 8 -88 -1 -41 3 -83 8 -94 6 -12 6 -16 -1 -12 -6 4 -10 -2 -9 -14 1 -11 5
-20 10 -20 5 0 4 -6 -2 -13 -6 -8 -8 -17 -4 -20 6 -6 7 -23 14 -152 1 -27 7
-53 13 -57 8 -5 7 -8 -1 -8 -9 0 -10 -7 -3 -25 7 -17 6 -25 -1 -25 -8 0 -8 -4
-2 -12 6 -7 11 -20 11 -28 1 -8 4 -37 6 -65 2 -27 5 -56 5 -63 1 -8 6 -10 13
-6 10 6 10 5 1 -8 -7 -8 -11 -17 -8 -20 3 -3 7 -22 9 -44 3 -21 5 -39 6 -39 1
0 5 -21 14 -75 15 -93 20 -109 28 -104 6 4 5 -2 -1 -13 -6 -11 -7 -23 -4 -27
8 -7 15 -40 16 -73 1 -12 5 -19 9 -17 4 3 8 -11 8 -30 0 -20 4 -36 8 -36 5 0
8 -13 7 -30 -1 -16 3 -30 8 -30 6 0 7 -3 4 -6 -3 -4 -2 -15 3 -24 5 -10 11
-32 12 -49 1 -17 5 -31 9 -31 3 0 10 -19 14 -42 8 -44 11 -54 15 -63 1 -3 3
-9 4 -14 0 -5 4 -13 8 -17 5 -4 8 -18 8 -31 0 -13 4 -23 8 -23 4 0 8 -9 9 -20
1 -11 9 -34 17 -50 8 -17 10 -27 4 -24 -6 4 -4 -3 5 -17 9 -13 17 -34 17 -46
0 -13 5 -23 10 -23 6 0 9 -3 8 -7 -3 -7 10 -43 32 -98 5 -11 14 -37 21 -57 7
-21 17 -38 21 -38 4 0 7 -3 6 -7 -3 -15 25 -93 34 -93 5 0 6 -4 3 -10 -3 -5
-1 -10 4 -10 6 0 10 -3 9 -7 -1 -5 9 -30 22 -58 13 -27 24 -52 24 -55 5 -21
33 -70 40 -70 4 0 6 -7 2 -15 -3 -8 -1 -15 4 -15 5 0 12 -10 16 -22 4 -13 11
-26 16 -29 5 -3 10 -16 11 -27 1 -12 4 -22 8 -22 7 0 33 -52 31 -62 -1 -5 2
-8 8 -8 5 0 10 -7 10 -15 0 -8 5 -15 12 -15 6 0 9 -3 5 -6 -3 -4 1 -13 9 -21
8 -8 12 -18 10 -22 -3 -4 3 -13 14 -21 10 -7 16 -19 13 -27 -3 -7 0 -13 6 -13
6 0 11 -7 11 -15 0 -8 5 -15 10 -15 6 0 10 -7 10 -15 0 -8 5 -15 10 -15 6 0
10 -9 10 -19 0 -11 4 -21 9 -23 9 -3 66 -91 62 -96 -1 -2 7 -12 19 -22 12 -10
22 -22 22 -27 1 -13 31 -57 45 -66 7 -4 13 -13 13 -18 0 -12 47 -79 69 -96 8
-7 12 -13 8 -13 -4 0 2 -10 12 -22 61 -71 71 -84 71 -91 0 -8 22 -35 78 -93
18 -19 30 -34 28 -34 -5 0 40 -54 76 -91 15 -15 24 -30 21 -33 -4 -3 1 -6 10
-6 9 0 17 -4 17 -10 0 -5 27 -37 60 -70 33 -33 60 -62 60 -65 0 -9 49 -52 54
-47 3 3 6 -2 6 -11 0 -10 4 -17 8 -17 4 0 42 -33 84 -74 42 -41 79 -72 82 -69
3 4 6 1 6 -5 0 -12 35 -52 45 -52 6 0 58 -45 97 -83 15 -15 28 -25 28 -23 0 3
12 -5 27 -19 60 -54 89 -75 101 -75 7 0 11 -4 8 -8 -3 -5 8 -16 25 -26 16 -9
29 -22 29 -27 0 -6 4 -8 8 -5 5 3 19 -5 33 -18 13 -12 39 -31 57 -41 17 -11
32 -23 32 -27 0 -4 6 -8 14 -8 8 0 16 -3 18 -7 4 -10 94 -73 103 -73 3 0 13
-6 20 -13 33 -29 45 -37 45 -31 0 3 22 -10 48 -29 27 -19 58 -38 70 -41 12 -4
22 -12 22 -17 0 -5 6 -9 14 -9 8 0 22 -7 30 -16 9 -8 16 -13 16 -9 0 3 10 -4
22 -15 12 -11 28 -18 35 -16 7 3 13 2 13 -3 0 -5 23 -19 50 -32 28 -13 50 -27
50 -31 0 -5 9 -8 19 -8 11 0 23 -5 26 -11 8 -11 55 -33 68 -31 4 1 7 -3 7 -9
0 -6 7 -9 15 -5 8 3 15 2 15 -3 0 -9 171 -87 182 -83 5 1 8 -3 8 -9 0 -5 4 -8
9 -4 5 3 12 1 16 -5 4 -6 11 -8 16 -5 5 4 9 1 9 -5 0 -6 4 -9 9 -5 6 3 14 -2
19 -11 5 -9 12 -15 16 -14 15 4 66 -12 66 -21 0 -6 4 -8 8 -5 4 2 26 -4 49
-14 23 -10 44 -16 47 -12 3 3 6 0 6 -7 0 -8 7 -11 15 -7 8 3 21 -2 29 -10 9
-8 17 -14 18 -13 8 6 108 -26 108 -35 0 -5 3 -7 6 -3 3 3 30 -3 60 -13 30 -11
54 -16 54 -13 0 3 6 0 13 -6 8 -6 17 -8 20 -4 4 3 7 1 7 -6 0 -7 5 -9 11 -5 6
3 15 0 20 -7 7 -12 9 -11 9 1 0 12 2 12 8 2 5 -7 23 -14 40 -15 18 -1 32 -4
32 -7 0 -3 8 -7 18 -8 30 -3 47 -7 58 -15 7 -4 28 -8 48 -9 20 -2 36 -7 36
-12 0 -4 7 -6 15 -2 8 3 15 2 15 -2 0 -4 12 -8 28 -8 15 -1 38 -5 52 -9 14 -4
34 -8 45 -10 45 -8 111 -18 123 -18 6 0 12 -3 12 -7 0 -3 10 -6 23 -7 12 0 47
-4 77 -8 30 -4 64 -9 75 -11 11 -1 20 -3 20 -4 0 -1 15 -3 32 -4 18 -1 36 -5
39 -9 3 -3 16 -2 29 3 13 5 26 5 31 0 5 -5 37 -10 71 -11 34 -1 60 -5 58 -9
-5 -8 39 -5 54 4 5 4 12 2 15 -2 3 -5 30 -8 61 -7 33 1 55 -3 55 -9 0 -6 4 -5
9 3 8 12 12 12 25 2 9 -8 16 -10 16 -5 0 5 14 9 30 9 17 0 30 -3 30 -6 0 -5
79 -4 105 1 6 1 15 1 20 0 32 -7 131 -3 138 5 4 6 10 5 16 -4 5 -7 11 -9 14
-5 3 5 41 9 85 8 45 0 79 2 77 5 -2 4 8 6 21 6 13 0 24 -4 24 -8 0 -5 6 -5 12
0 7 4 24 8 38 9 14 1 54 5 90 9 36 4 77 7 93 7 15 0 27 5 27 10 0 6 6 6 14 -1
9 -7 17 -8 20 -3 3 6 24 9 46 8 22 0 40 3 40 8 0 4 9 6 20 3 11 -3 20 -1 20 5
0 5 5 6 10 3 6 -4 17 -1 25 5 11 9 15 9 15 1 0 -8 6 -9 18 -2 9 5 35 11 57 14
22 3 54 9 70 13 17 4 40 7 53 7 12 1 22 4 22 7 0 3 10 7 23 8 28 2 58 8 77 15
20 7 93 21 103 19 4 -1 7 2 7 6 0 5 6 9 13 9 10 1 26 4 82 16 6 2 16 6 23 11
7 4 16 5 19 2 3 -3 18 1 34 10 16 8 30 14 31 13 6 -4 153 46 156 52 2 5 10 5
18 2 8 -3 14 -1 14 5 0 6 8 9 18 8 9 -2 24 0 32 5 41 21 90 39 104 39 9 0 16
5 16 10 0 6 6 10 13 9 14 -2 51 12 119 46 27 12 45 18 42 12 -3 -7 1 -4 9 6 9
10 17 17 19 16 7 -5 78 23 78 32 0 5 3 8 8 7 18 -4 61 15 55 25 -4 6 0 8 10 4
8 -3 21 1 27 8 7 8 16 12 21 9 5 -3 9 0 9 6 0 6 5 8 10 5 6 -3 10 -1 10 5 0 6
5 8 10 5 6 -3 10 -1 10 5 0 6 4 9 9 5 5 -3 16 2 24 10 9 8 23 15 31 15 9 0 16
5 16 12 0 6 3 8 6 5 4 -4 19 2 34 13 16 11 31 20 34 20 4 0 24 11 46 25 22 14
40 23 40 20 0 -3 10 3 22 14 11 11 24 18 28 16 5 -3 11 2 14 11 3 9 11 14 18
12 6 -2 20 3 29 11 35 32 47 40 52 35 2 -3 15 7 28 21 13 13 29 25 34 25 6 0
3 -5 -5 -10 -8 -5 -10 -10 -4 -10 14 0 36 25 29 33 -3 4 -2 5 1 2 4 -2 41 19
83 48 42 28 79 51 84 49 4 -1 7 4 7 12 0 8 5 18 12 22 7 5 8 3 3 -7 -9 -14 0
-8 42 26 60 49 118 90 126 87 4 -1 7 5 7 13 0 8 6 15 14 15 8 0 16 3 18 8 2 4
31 29 66 56 34 27 62 53 62 57 0 5 5 9 10 9 11 0 51 35 152 131 32 30 58 54
58 52 0 -5 33 30 57 60 12 15 25 29 30 30 13 2 52 44 47 50 -3 3 4 8 15 12 12
3 21 13 21 21 0 8 3 13 8 11 4 -3 13 1 20 9 7 8 11 14 8 14 -3 0 22 27 56 60
33 33 57 60 54 60 -3 0 9 15 27 34 17 19 43 48 57 66 14 18 35 43 47 56 13 13
23 28 23 33 0 6 11 18 25 27 14 9 25 23 25 30 0 8 5 14 12 14 6 0 8 3 5 7 -4
3 2 12 13 20 11 8 20 20 20 26 0 7 8 20 18 29 29 28 41 46 35 52 -3 3 2 8 11
12 9 3 16 12 16 20 0 7 9 19 20 27 11 8 18 16 15 19 -3 3 4 13 15 23 11 10 20
23 20 30 0 7 9 20 20 30 11 10 20 24 20 32 0 7 5 13 10 13 6 0 10 7 10 15 0 8
5 15 11 15 5 0 8 4 5 9 -3 5 1 12 10 15 9 4 14 9 11 12 -5 5 27 59 52 90 14
17 32 54 26 54 -2 0 2 8 10 17 8 10 16 23 17 28 1 6 10 19 20 29 9 10 15 23
12 28 -3 4 0 8 6 8 6 0 8 4 5 10 -3 5 -1 10 4 10 6 0 11 7 11 15 0 8 5 15 11
15 5 0 7 4 4 10 -3 5 -2 10 3 10 5 0 14 18 21 40 6 22 17 40 23 40 6 0 8 3 5
6 -4 4 2 19 13 34 11 16 20 35 20 44 0 9 5 16 10 16 6 0 10 9 10 20 0 11 5 20
10 20 6 0 9 3 8 8 -1 4 5 21 12 37 7 17 13 33 12 38 -1 4 3 7 9 7 5 0 8 4 4 9
-3 5 -1 12 5 16 6 4 8 11 5 16 -4 5 -2 9 3 9 9 0 27 47 24 63 -1 4 3 7 9 7 6
0 9 7 5 15 -3 8 -1 15 4 15 6 0 10 9 10 20 0 11 5 20 11 20 6 0 9 9 6 20 -3
11 -1 18 4 14 5 -3 9 4 9 15 0 12 4 21 10 21 5 0 7 7 4 15 -4 8 -1 15 6 15 6
0 9 4 6 8 -3 5 2 21 9 36 8 16 12 32 9 37 -3 5 0 9 7 9 7 0 9 3 6 7 -4 3 -2
12 4 20 6 7 8 13 4 13 -4 0 -3 6 3 13 5 6 13 28 17 47 4 19 12 40 17 47 5 7 7
17 3 23 -3 5 -1 10 6 10 6 0 9 8 6 20 -3 10 -1 20 3 22 5 2 10 14 12 28 2 14
8 32 13 40 5 8 10 25 11 38 2 13 8 30 14 37 7 9 8 15 1 20 -7 4 -5 15 5 31 9
13 14 24 10 24 -3 0 -2 10 3 23 5 13 12 41 16 63 8 45 13 69 15 69 3 0 15 60
24 115 8 43 15 70 22 82 5 7 3 8 -5 3 -10 -6 -11 -3 -2 14 7 12 9 26 6 31 -3
6 -2 10 2 10 9 0 10 10 14 85 0 19 4 33 8 31 6 -4 11 51 14 151 1 29 5 53 9
53 4 0 7 17 6 38 0 20 1 39 2 42 1 3 3 28 5 55 2 28 6 67 8 88 2 22 -1 37 -7
37 -7 0 -6 3 1 8 15 10 16 517 1 546 -7 12 -7 16 0 12 6 -4 10 2 9 14 -1 11
-4 20 -7 20 -3 0 -5 32 -5 70 0 38 -2 70 -5 70 -3 0 -6 15 -6 33 -3 87 -10
147 -15 147 -4 0 -6 18 -5 40 1 22 -2 40 -7 40 -5 0 -3 8 4 17 10 11 10 14 2
9 -9 -5 -13 0 -14 16 0 13 -3 39 -6 58 -2 19 -5 42 -5 50 -1 8 -5 21 -11 28
-6 8 -5 12 4 12 10 0 10 3 3 8 -11 6 -23 60 -27 120 -1 12 -5 22 -9 22 -4 0
-5 9 -3 20 2 11 0 20 -5 20 -5 0 -7 9 -5 20 2 11 1 20 -3 20 -4 0 -8 10 -8 23
-2 19 -8 48 -31 132 -3 11 -6 30 -7 43 0 12 -4 22 -8 22 -5 0 -8 11 -8 25 0
14 -5 25 -12 25 -6 0 -9 3 -6 6 4 3 2 20 -3 37 -19 60 -21 72 -23 94 0 11 -4
19 -8 16 -8 -4 -12 11 -9 35 1 6 -3 12 -10 12 -6 0 -9 8 -6 20 3 10 1 20 -5
22 -5 2 -11 12 -13 23 -2 11 -4 22 -6 25 -1 3 -3 10 -4 15 -1 6 -7 21 -12 35
-6 14 -10 27 -10 30 0 3 -6 16 -13 30 -8 14 -13 31 -12 38 2 6 -2 12 -9 12 -6
0 -9 8 -6 20 3 11 1 18 -4 14 -5 -3 -9 2 -9 10 0 9 -9 32 -20 51 -11 20 -21
47 -22 60 -1 13 -5 22 -9 19 -6 -3 -23 45 -19 55 1 2 -5 8 -14 13 -8 5 -13 15
-10 23 4 8 1 15 -6 15 -6 0 -8 5 -5 10 3 6 1 10 -4 10 -6 0 -11 9 -11 20 0 11
-5 20 -11 20 -6 0 -8 7 -5 15 3 9 -1 18 -9 21 -8 4 -12 10 -9 15 3 5 0 9 -5 9
-6 0 -10 3 -9 8 2 8 -32 84 -42 92 -9 7 -24 43 -22 53 1 4 -3 7 -9 7 -5 0 -7
5 -4 10 3 6 1 10 -4 10 -6 0 -11 5 -11 11 0 6 -9 23 -20 39 -11 15 -17 30 -13
33 3 4 -2 9 -11 13 -9 3 -16 14 -16 24 0 10 -4 20 -9 22 -5 2 -11 10 -13 18
-2 8 -11 23 -20 34 -10 11 -24 32 -30 48 -7 15 -16 28 -20 28 -5 0 -8 6 -8 13
0 7 -13 27 -29 45 -17 17 -25 32 -18 32 7 0 4 5 -5 11 -10 5 -18 15 -18 20 0
6 -6 17 -12 24 -28 31 -38 44 -38 50 0 3 -27 42 -60 86 -34 43 -58 79 -55 79
3 0 -4 11 -17 24 -42 42 -68 76 -68 87 0 5 -4 8 -9 4 -5 -3 -13 4 -16 15 -4
12 -22 37 -41 55 -19 19 -32 35 -28 35 4 0 -5 10 -19 23 -15 12 -27 25 -27 28
0 6 -76 90 -187 206 -40 42 -73 80 -73 86 0 6 -3 8 -6 4 -4 -3 -36 23 -71 58
-36 36 -67 65 -69 65 -2 0 -19 15 -37 33 -19 17 -58 52 -87 77 -29 25 -60 52
-70 60 -9 8 -32 26 -50 40 -18 14 -47 37 -64 52 -16 14 -33 25 -37 23 -3 -3
-12 7 -19 20 -7 13 -16 22 -20 20 -4 -3 -20 7 -34 20 -15 14 -31 25 -35 25 -4
0 -16 9 -26 20 -10 11 -21 17 -25 15 -4 -3 -10 2 -14 10 -3 8 -10 15 -16 15
-6 0 -18 6 -25 13 -33 28 -45 37 -53 37 -5 0 -17 9 -27 20 -10 11 -23 20 -29
20 -6 0 -29 14 -50 30 -22 17 -46 30 -53 30 -7 0 -13 4 -13 8 0 5 -17 17 -37
28 -60 32 -88 49 -93 55 -6 6 -31 16 -44 17 -5 0 -12 4 -15 9 -10 15 -139 82
-145 75 -3 -3 -6 0 -6 7 0 6 -12 17 -27 23 -16 6 -30 12 -33 14 -3 1 -15 5
-27 9 -13 4 -23 11 -23 16 0 5 -3 8 -7 7 -7 -2 -59 20 -137 58 -16 8 -35 14
-43 14 -7 0 -13 3 -13 8 0 7 -63 32 -87 34 -7 1 -13 5 -13 10 0 4 -9 8 -19 8
-11 0 -23 5 -26 10 -4 6 -11 8 -16 5 -5 -4 -9 -1 -9 6 0 6 -8 9 -20 6 -10 -3
-20 -2 -22 2 -4 11 -148 64 -155 58 -3 -4 -12 1 -21 9 -8 9 -24 13 -34 11 -11
-3 -21 0 -24 8 -3 8 -12 11 -20 8 -8 -3 -14 0 -14 7 0 6 -3 9 -8 6 -4 -2 -30
4 -57 13 -28 10 -56 16 -62 14 -7 -3 -13 0 -13 5 0 8 -26 15 -87 24 -7 1 -13
4 -13 8 0 4 -11 6 -25 5 -14 -2 -25 1 -25 6 0 6 -3 8 -7 6 -5 -3 -19 0 -33 5
-14 6 -38 12 -55 14 -16 2 -41 6 -55 10 -14 3 -37 7 -52 8 -16 0 -28 4 -28 7
0 3 -6 6 -12 7 -57 6 -106 16 -122 24 -14 8 -17 7 -10 -4 6 -11 5 -11 -8 0 -9
7 -20 12 -24 11 -27 -5 -64 2 -59 11 4 7 -2 7 -19 0 -16 -6 -27 -6 -31 0 -9
15 -37 12 -30 -2 4 -7 1 -6 -7 2 -7 8 -29 15 -48 15 -19 0 -45 3 -57 7 -13 4
-24 2 -27 -5 -3 -9 -5 -9 -5 1 -1 8 -18 12 -52 12 -35 0 -48 3 -43 12 5 8 3 8
-7 2 -19 -12 -59 -12 -59 -1 0 5 -6 4 -14 -2 -9 -8 -16 -8 -20 -2 -4 5 -24 8
-46 6 -25 -2 -40 1 -40 8 0 8 -3 8 -11 0 -6 -6 -25 -7 -50 -3 -21 4 -39 3 -39
-1 0 -5 -5 -9 -11 -9 -5 0 -7 5 -4 10 3 6 2 10 -4 10 -5 0 -13 -5 -16 -10 -4
-6 -12 -7 -18 -3 -18 11 -81 11 -96 -1 -11 -8 -13 -8 -8 1 5 8 -9 11 -53 10
-33 -1 -60 -6 -60 -12 0 -7 -3 -7 -8 0 -8 12 -82 14 -82 3 0 -5 -5 -8 -11 -8
-5 0 -7 5 -4 10 3 6 -1 10 -9 10 -9 0 -16 -6 -16 -12 0 -10 -3 -9 -9 1 -7 11
-9 11 -14 0 -5 -12 -7 -12 -15 0 -6 8 -12 9 -15 3z m273 -1557 c25 0 51 -4 59
-10 11 -7 13 -7 7 3 -5 8 0 12 14 12 14 0 19 -4 15 -12 -4 -7 1 -4 9 6 9 11
16 15 16 8 0 -7 15 -10 43 -8 23 1 48 -2 56 -8 11 -8 13 -8 7 2 -5 8 0 12 14
12 14 0 19 -4 15 -12 -4 -7 1 -4 9 6 9 11 16 15 16 9 0 -7 36 -11 109 -10 67
1 107 5 104 11 -4 5 -1 6 8 0 20 -13 240 -14 232 -1 -4 6 -1 7 8 1 21 -13 191
-15 182 -2 -4 7 -1 8 8 2 8 -5 25 -10 39 -11 14 -1 36 -4 50 -5 14 -2 30 -11
35 -20 6 -9 14 -16 20 -16 5 0 14 -8 20 -18 5 -11 13 -21 17 -24 12 -9 12
-108 1 -122 -6 -7 -14 -31 -18 -53 -4 -22 -11 -45 -16 -51 -5 -7 -9 -16 -8
-20 2 -10 -8 -40 -22 -68 -8 -14 -8 -16 3 -10 10 6 10 4 -1 -9 -7 -9 -10 -17
-7 -17 4 0 4 -6 -1 -12 -8 -13 -13 -33 -15 -55 -1 -7 -5 -13 -9 -13 -4 0 -6
-11 -4 -25 1 -14 -1 -25 -5 -25 -6 0 -45 -127 -43 -140 1 -3 -3 -11 -9 -17 -6
-7 -8 -13 -4 -13 3 0 -1 -16 -9 -37 -8 -20 -13 -38 -10 -41 3 -3 0 -10 -5 -17
-5 -6 -12 -22 -14 -36 -3 -13 -5 -24 -6 -24 -2 0 -11 -38 -12 -52 -1 -7 -4
-13 -7 -13 -4 0 -8 -12 -9 -26 -1 -14 -5 -31 -9 -37 -9 -14 -8 -10 -18 -64 -4
-24 -11 -43 -15 -43 -3 0 -7 -6 -8 -12 0 -7 -3 -20 -5 -28 -17 -68 -30 -110
-42 -141 -8 -20 -11 -39 -8 -43 4 -3 0 -6 -8 -6 -11 0 -11 -2 1 -10 10 -6 11
-10 3 -10 -7 0 -12 -3 -11 -7 4 -15 -14 -73 -22 -73 -4 0 -8 -6 -7 -12 1 -35
-4 -59 -12 -54 -4 3 -6 -6 -3 -19 3 -16 0 -25 -9 -25 -7 0 -10 -3 -6 -6 3 -3
-1 -24 -9 -46 -8 -23 -13 -46 -12 -52 1 -6 -3 -21 -10 -34 -7 -12 -10 -26 -7
-31 3 -5 0 -11 -6 -13 -6 -2 -12 -18 -12 -36 -1 -18 -5 -32 -10 -32 -4 0 -6
-4 -2 -9 3 -5 0 -13 -6 -16 -5 -4 -8 -13 -5 -21 3 -8 0 -14 -6 -14 -6 0 -9 -3
-5 -6 3 -3 -1 -24 -9 -46 -7 -22 -11 -44 -8 -49 3 -5 0 -9 -7 -9 -7 0 -9 -3
-6 -6 3 -4 1 -16 -5 -28 -7 -11 -11 -24 -10 -29 1 -4 -5 -23 -13 -43 -8 -19
-14 -38 -14 -42 1 -4 0 -10 -1 -14 -1 -5 -4 -12 -5 -18 -1 -5 -4 -12 -5 -15
-1 -3 -4 -9 -5 -15 -1 -5 -4 -13 -5 -17 -1 -5 -3 -12 -4 -18 -1 -5 -5 -17 -8
-25 -21 -50 -58 -202 -52 -211 4 -7 3 -9 -4 -5 -9 5 -21 -23 -28 -69 -1 -5 -3
-13 -4 -17 -1 -5 -4 -12 -5 -18 -1 -5 -4 -12 -5 -15 -1 -3 -4 -9 -5 -15 -1 -5
-3 -11 -5 -12 -2 -4 -11 -41 -12 -55 -1 -7 -5 -13 -10 -13 -5 0 -7 -4 -3 -9 3
-5 0 -13 -6 -17 -8 -4 -7 -9 2 -15 11 -7 11 -9 1 -9 -7 0 -10 -4 -7 -10 3 -5
1 -10 -5 -10 -6 0 -9 -4 -6 -9 3 -5 -1 -25 -9 -45 -9 -20 -13 -41 -10 -47 4
-5 -1 -12 -10 -15 -13 -6 -14 -8 -3 -15 10 -7 11 -9 0 -9 -7 0 -10 -4 -7 -10
3 -5 3 -16 -2 -22 -4 -7 -8 -16 -9 -20 -1 -5 -3 -10 -4 -13 -1 -3 -3 -8 -4
-12 -2 -5 -8 -28 -16 -53 -7 -25 -13 -51 -13 -57 0 -7 -3 -13 -7 -13 -4 0 -7
-7 -7 -15 0 -22 43 -17 122 15 11 4 40 14 65 21 61 17 73 20 88 21 6 1 12 6
12 11 0 5 7 7 15 3 8 -3 20 0 27 7 7 7 18 12 23 12 18 1 80 17 90 24 6 4 17 7
25 6 8 0 18 3 21 7 3 4 17 9 32 10 15 1 27 7 27 12 0 5 3 7 6 4 3 -4 21 0 40
8 19 8 34 12 34 9 0 -4 6 -3 13 2 6 4 15 8 20 9 4 1 8 2 10 4 1 1 9 3 17 5 8
2 37 10 65 19 27 8 50 14 52 12 2 -1 -2 -18 -8 -37 -14 -43 -18 -58 -19 -64
-1 -3 -6 -19 -12 -37 -5 -18 -11 -40 -12 -48 -1 -8 -8 -26 -16 -40 -7 -14 -12
-26 -11 -28 5 -5 -12 -72 -18 -72 -4 0 -7 -12 -6 -27 0 -16 -3 -31 -8 -34 -4
-3 -9 -16 -10 -27 -1 -12 -5 -22 -9 -22 -4 0 -5 -9 -3 -20 2 -11 0 -20 -4 -20
-4 0 -8 -6 -9 -12 -9 -74 -26 -97 -77 -105 -11 -2 -21 -8 -23 -13 -2 -5 -9 -7
-17 -4 -7 3 -16 0 -20 -5 -3 -6 -11 -9 -16 -5 -5 3 -15 1 -22 -4 -10 -8 -43
-18 -74 -24 -5 0 -39 -11 -77 -24 -38 -13 -78 -24 -88 -24 -10 0 -18 -4 -18
-9 0 -5 -19 -11 -42 -15 -23 -4 -48 -12 -55 -18 -7 -6 -13 -7 -13 -4 0 4 -6 4
-12 -1 -13 -8 -29 -12 -60 -15 -10 -1 -18 -5 -18 -8 0 -5 -91 -33 -112 -35 -3
0 -10 -3 -14 -7 -4 -5 -17 -8 -29 -8 -25 0 -68 -37 -60 -51 4 -5 1 -9 -4 -9
-6 0 -11 -5 -11 -11 0 -5 5 -7 11 -3 6 3 3 -5 -6 -20 -10 -14 -14 -26 -10 -26
4 0 3 -6 -3 -12 -6 -7 -11 -16 -11 -21 -1 -14 -13 -62 -18 -77 -4 -8 -7 -18
-8 -22 -2 -5 -4 -10 -5 -13 -4 -9 -7 -19 -15 -62 -4 -24 -11 -43 -15 -43 -3 0
-7 -6 -8 -12 -3 -42 -7 -58 -14 -58 -4 0 -5 -9 -3 -20 2 -11 0 -20 -6 -20 -5
0 -9 -11 -9 -25 0 -14 -5 -25 -11 -25 -5 0 -8 -4 -5 -9 6 -9 -9 -64 -25 -95
-8 -14 -8 -16 3 -10 11 6 11 5 0 -8 -7 -9 -15 -27 -16 -40 -2 -13 -9 -36 -16
-53 -6 -16 -14 -40 -16 -52 -2 -12 -8 -33 -14 -47 -5 -13 -6 -27 -3 -30 4 -3
1 -6 -6 -6 -7 0 -11 -7 -8 -15 4 -8 2 -17 -4 -20 -5 -4 -8 -12 -7 -18 1 -7 -2
-21 -8 -32 -6 -11 -10 -29 -10 -40 1 -11 -6 -26 -14 -33 -13 -12 -13 -13 0 -6
12 6 13 5 3 -7 -6 -8 -13 -28 -16 -45 -3 -17 -10 -41 -16 -52 -6 -11 -8 -29
-4 -39 3 -10 2 -14 -2 -10 -10 9 -37 -72 -29 -85 3 -4 1 -8 -5 -8 -6 0 -8 -6
-5 -14 3 -8 1 -17 -5 -21 -6 -3 -11 -16 -11 -29 0 -12 -3 -26 -7 -30 -4 -3 -8
-12 -9 -19 -2 -7 -6 -23 -9 -37 -4 -14 -7 -31 -7 -37 -1 -7 -4 -13 -8 -13 -4
0 -7 -6 -8 -12 -3 -42 -10 -71 -18 -76 -5 -4 -10 -16 -11 -27 -4 -27 -9 -47
-17 -67 -4 -9 -9 -22 -10 -30 -15 -63 -20 -78 -26 -78 -5 0 -6 -9 -3 -20 3
-11 10 -20 15 -20 5 0 6 5 2 12 -5 8 -3 8 7 2 8 -5 104 -9 214 -10 110 0 207
-4 214 -9 9 -5 12 -4 8 2 -4 6 29 9 89 7 59 -1 92 1 88 8 -3 5 3 4 14 -3 17
-11 24 -10 38 2 10 8 15 9 11 3 -4 -7 23 -11 88 -11 64 0 92 4 88 11 -4 6 1 5
11 -3 14 -12 21 -13 38 -2 11 7 17 8 14 3 -8 -13 137 -11 146 3 5 7 8 7 8 -1
0 -7 33 -11 95 -11 54 0 92 4 89 9 -4 5 3 4 14 -3 17 -11 24 -10 38 2 10 8 15
9 11 3 -4 -7 23 -11 88 -11 64 0 92 4 88 11 -4 6 1 5 11 -3 14 -12 21 -13 38
-2 11 7 17 8 14 3 -3 -6 21 -9 62 -8 37 1 75 -2 86 -7 11 -5 16 -5 13 0 -4 6
33 8 89 7 69 -2 92 1 87 9 -4 7 1 6 11 -2 14 -12 21 -13 38 -2 11 7 18 8 14 3
-3 -5 35 -9 89 -9 53 0 92 4 88 9 -3 5 4 4 15 -3 17 -11 24 -10 38 2 10 8 15
9 11 3 -9 -15 135 -14 145 1 5 7 8 7 8 -1 0 -7 33 -11 95 -11 65 0 92 4 88 11
-4 6 1 5 11 -3 14 -12 21 -13 38 -2 11 7 18 8 14 3 -3 -5 35 -9 89 -9 64 0 92
4 88 11 -3 6 0 5 8 -2 7 -6 28 -12 47 -12 39 0 70 -15 94 -44 10 -12 23 -27
29 -34 6 -7 8 -16 5 -19 -3 -3 -1 -12 5 -20 9 -10 8 -13 -2 -13 -11 0 -11 -2
1 -10 8 -5 11 -10 5 -10 -5 0 -11 -10 -12 -22 -6 -53 -11 -75 -26 -112 -10
-21 -17 -47 -17 -57 0 -11 -4 -19 -9 -19 -4 0 -7 -11 -6 -25 2 -14 0 -25 -4
-25 -4 0 -8 -12 -9 -27 -1 -15 -5 -29 -10 -32 -4 -3 -8 -15 -10 -26 -8 -56
-11 -67 -20 -78 -5 -7 -10 -19 -10 -27 -1 -20 -8 -49 -21 -82 -6 -16 -7 -28
-4 -28 4 0 2 -5 -4 -11 -6 -6 -9 -18 -6 -25 3 -8 1 -14 -4 -14 -5 0 -10 -6
-11 -12 -1 -16 -10 -53 -12 -53 -1 0 -4 -13 -6 -30 -3 -16 -8 -32 -12 -35 -4
-3 -8 -10 -9 -16 -1 -6 -4 -24 -7 -39 -8 -44 -37 -124 -47 -131 -5 -3 -7 -8
-5 -12 7 -12 -79 -71 -114 -78 -54 -10 -83 -10 -102 -1 -10 4 -18 4 -18 -1 0
-9 -133 -8 -149 2 -6 4 -11 3 -11 -1 0 -12 -134 -10 -142 2 -5 6 -8 6 -8 -1 0
-6 -7 -11 -15 -11 -8 0 -15 5 -15 11 0 6 -4 6 -12 -2 -7 -7 -17 -8 -30 -1 -10
5 -18 6 -18 2 0 -12 -134 -10 -142 2 -5 6 -8 6 -8 -1 0 -6 -7 -11 -15 -11 -8
0 -15 5 -15 11 0 6 -4 6 -12 -2 -7 -7 -17 -8 -30 -1 -10 5 -18 6 -18 1 0 -9
-133 -8 -149 2 -6 4 -11 3 -11 -1 0 -12 -134 -10 -142 2 -5 6 -8 6 -8 -1 0 -6
-7 -11 -15 -11 -8 0 -15 5 -15 11 0 6 -4 6 -12 -2 -7 -7 -17 -8 -30 -1 -10 5
-18 6 -18 2 0 -12 -134 -10 -142 2 -5 6 -8 6 -8 -1 0 -6 -7 -11 -15 -11 -8 0
-15 5 -15 11 0 6 -4 6 -12 -2 -7 -7 -17 -8 -30 -1 -10 5 -18 6 -18 1 0 -9
-133 -8 -149 2 -6 4 -11 3 -11 -1 0 -12 -134 -10 -142 2 -5 6 -8 6 -8 -1 0 -6
-7 -11 -15 -11 -8 0 -15 5 -15 11 0 6 -4 6 -12 -2 -7 -7 -17 -8 -30 -1 -10 5
-18 6 -18 2 0 -12 -134 -10 -142 2 -5 6 -8 6 -8 -1 0 -6 -7 -11 -15 -11 -8 0
-15 5 -15 11 0 6 -4 6 -12 -2 -7 -7 -17 -8 -30 -1 -10 5 -18 6 -18 2 0 -12
-134 -10 -142 2 -5 6 -8 6 -8 -1 0 -6 -7 -11 -15 -11 -8 0 -15 5 -15 11 0 6
-4 6 -12 -2 -7 -7 -17 -8 -30 -1 -10 5 -18 6 -18 2 0 -12 -134 -10 -142 2 -5
6 -8 6 -8 -1 0 -6 -7 -11 -15 -11 -8 0 -15 5 -15 11 0 6 -4 6 -12 -2 -7 -7
-17 -8 -30 -1 -10 5 -18 6 -18 2 0 -12 -134 -10 -142 2 -5 6 -8 6 -8 -1 0 -6
-7 -11 -15 -11 -8 0 -15 5 -15 11 0 6 -4 6 -12 -2 -7 -7 -17 -8 -30 -1 -10 5
-18 6 -18 2 0 -12 -134 -10 -142 2 -5 6 -8 6 -8 -1 0 -6 -7 -11 -15 -11 -8 0
-15 5 -15 11 0 6 -4 6 -12 -2 -7 -7 -17 -8 -30 -1 -10 5 -18 6 -18 2 0 -12
-134 -10 -142 2 -5 6 -8 6 -8 -1 0 -6 -7 -11 -15 -11 -8 0 -15 5 -15 11 0 6
-4 6 -12 -2 -7 -7 -17 -8 -30 -1 -10 5 -18 6 -18 2 0 -4 -32 -8 -70 -8 -40 0
-70 4 -70 10 0 6 -4 4 -9 -3 -11 -17 -21 -17 -32 0 -6 9 -11 10 -16 2 -9 -11
-52 -12 -71 0 -7 4 -12 3 -12 -2 0 -11 -50 -9 -68 2 -7 4 -12 3 -12 -2 0 -11
-50 -9 -68 2 -7 4 -12 3 -12 -2 0 -11 -50 -9 -68 2 -7 4 -12 3 -12 -2 0 -11
-50 -9 -68 2 -7 4 -12 3 -12 -2 0 -11 -50 -9 -68 2 -7 4 -12 3 -12 -2 0 -11
-50 -9 -68 2 -7 4 -12 3 -12 -2 0 -12 -93 -9 -102 3 -5 6 -8 6 -8 -1 0 -6 -7
-11 -15 -11 -8 0 -15 5 -15 11 0 6 -4 6 -12 -2 -7 -7 -17 -8 -30 -1 -10 5 -18
6 -18 2 0 -12 -134 -10 -142 2 -5 6 -8 5 -8 -4 0 -11 -3 -11 -15 -1 -16 13
-17 62 -1 53 5 -3 7 5 4 20 -3 15 -1 28 4 29 4 2 11 16 14 32 3 16 10 38 15
48 6 11 8 22 5 25 -3 3 1 18 10 34 8 16 14 30 13 31 -1 2 4 23 11 48 7 25 14
53 15 62 2 10 7 24 12 31 4 6 8 19 8 27 0 8 4 21 8 28 5 6 5 17 2 22 -3 6 -1
10 5 10 6 0 9 4 5 9 -3 5 0 13 6 16 5 4 8 13 5 21 -3 8 -1 14 4 14 5 0 7 9 5
20 -2 11 0 20 4 20 5 0 11 13 15 30 3 17 9 43 12 60 4 16 11 30 16 30 5 0 6 5
3 10 -4 6 -2 16 3 23 5 7 8 20 7 30 -2 9 2 17 8 17 5 0 8 3 4 6 -3 4 0 22 9
42 8 19 12 37 10 40 -3 2 1 17 9 32 8 15 11 30 8 34 -4 3 -1 6 6 6 7 0 10 4 6
9 -3 5 -1 20 4 33 25 62 25 63 35 116 4 23 11 40 15 38 4 -3 6 8 5 25 -1 16 1
29 6 29 4 0 11 15 15 33 4 17 9 34 10 37 1 3 5 22 9 43 5 20 13 37 20 37 6 0
4 5 -4 10 -8 5 -10 10 -5 10 6 0 12 10 12 22 1 13 6 24 11 26 6 2 7 12 4 24
-3 13 -1 19 5 15 6 -4 10 1 10 11 -1 9 5 37 13 62 7 25 14 48 16 53 1 4 2 8 4
10 1 1 3 9 5 17 2 8 7 26 10 40 4 14 7 31 7 38 1 6 5 12 10 12 4 0 7 3 6 8 -2
9 13 74 20 87 7 10 11 28 14 58 1 9 7 17 12 17 5 0 7 3 3 6 -3 4 0 18 7 33 7
14 12 34 11 44 -2 9 0 17 4 17 4 0 8 6 8 13 0 6 12 52 27 101 15 49 28 97 29
107 1 11 4 19 7 19 3 0 7 10 7 22 1 13 6 24 11 26 6 2 8 12 5 22 -3 11 -1 20
4 20 5 0 9 8 10 18 0 9 4 28 8 42 4 14 8 32 9 40 1 8 7 25 14 36 10 19 9 23
-8 27 -10 3 -22 2 -25 -2 -4 -3 -11 -7 -16 -7 -5 -1 -11 -3 -14 -4 -3 -1 -8
-3 -12 -4 -11 -3 -85 -27 -103 -33 -18 -7 -29 -9 -53 -11 -10 -1 -15 -6 -12
-12 3 -6 -1 -7 -10 -4 -8 4 -21 2 -28 -4 -6 -5 -20 -8 -29 -7 -10 2 -18 -1
-18 -6 0 -5 -11 -9 -25 -9 -14 0 -25 -4 -25 -8 0 -5 -6 -9 -12 -10 -40 -3 -58
-7 -58 -12 0 -3 -12 -7 -26 -8 -15 -1 -33 -7 -40 -13 -8 -6 -14 -8 -14 -4 0 4
-7 2 -15 -5 -8 -7 -15 -9 -15 -5 0 4 -6 3 -12 -2 -7 -6 -21 -9 -30 -8 -10 2
-18 -1 -18 -6 0 -6 -4 -8 -9 -4 -5 3 -12 1 -16 -5 -4 -6 -11 -8 -16 -5 -5 4
-9 1 -9 -5 0 -6 -4 -9 -9 -5 -5 3 -32 -4 -60 -15 -28 -10 -52 -16 -55 -12 -6
10 5 62 13 62 4 0 7 8 8 18 1 15 5 33 29 117 3 11 7 27 8 35 2 8 8 28 15 43 6
16 11 34 11 42 0 8 5 17 10 20 6 4 8 11 5 16 -4 5 -3 15 2 22 4 6 9 18 10 25
2 6 4 18 6 25 1 6 6 18 10 25 5 6 6 16 2 21 -3 5 -1 12 5 16 6 4 8 10 5 15 -3
5 -1 11 5 15 6 4 8 10 5 15 -3 5 -1 11 5 15 6 4 8 10 5 15 -3 4 3 14 12 21 14
12 16 12 8 0 -6 -11 -5 -12 6 -5 26 16 83 33 92 27 6 -4 7 -1 2 7 -6 10 -4 12
8 7 10 -3 17 -3 17 2 0 4 6 8 13 9 6 0 23 3 37 7 14 4 31 7 38 7 6 1 12 5 12
10 0 5 4 7 9 4 5 -3 23 1 40 10 18 9 38 13 46 10 7 -2 15 0 17 5 2 6 12 12 23
14 11 2 21 4 23 5 3 3 11 5 55 14 20 5 37 12 37 16 0 5 11 7 25 5 14 -1 25 2
25 6 0 5 11 9 24 9 14 0 28 5 31 11 4 6 13 8 21 5 8 -3 14 -1 14 4 0 6 3 9 8
8 15 -4 158 45 174 59 9 8 15 23 13 34 -2 10 0 19 6 19 5 0 8 3 7 8 -2 12 12
64 28 100 11 25 11 31 2 26 -10 -6 -11 -5 -1 8 7 8 10 18 6 21 -3 4 -2 7 4 7
5 0 10 6 11 13 1 14 7 36 15 57 3 8 9 29 13 45 4 17 9 36 11 43 1 6 4 18 6 25
1 6 6 17 9 23 4 6 9 21 12 35 17 74 30 119 36 119 4 0 6 10 5 23 -1 12 2 24 6
27 4 3 10 19 13 35 2 17 5 31 5 33 1 1 1 4 0 8 0 3 6 16 15 29 9 13 13 31 10
39 -3 9 -2 16 3 16 5 0 10 8 11 18 4 37 8 51 21 66 11 13 11 16 0 16 -10 0
-10 3 -1 12 7 7 12 20 12 31 0 10 3 16 8 14 4 -3 8 5 8 16 1 12 4 29 6 37 3 8
8 29 12 45 4 17 10 37 13 45 4 8 5 18 5 23 -1 4 3 7 9 7 8 0 8 4 0 14 -9 10
-8 16 4 26 8 7 12 16 9 21 -3 5 -1 9 5 9 5 0 8 8 7 17 -2 10 4 34 12 53 8 19
17 49 19 65 3 17 9 37 14 46 4 9 5 19 2 23 -3 3 -1 6 6 6 6 0 11 6 10 13 -1 6
0 19 3 27 23 68 27 84 22 91 -3 5 0 9 7 9 6 0 9 8 6 20 -3 10 -1 20 4 22 5 2
10 15 11 31 1 15 5 27 9 27 6 0 18 44 22 83 1 9 4 17 7 17 4 0 7 6 8 13 0 6 3
23 7 37 4 14 8 33 8 43 1 9 4 17 8 17 4 0 10 15 14 33 4 17 9 37 11 42 2 6 5
19 8 30 2 11 5 21 6 23 2 1 4 7 5 12 1 6 4 13 5 18 1 4 3 12 5 17 1 6 3 13 5
18 5 12 7 26 9 43 0 9 6 12 13 8 8 -5 9 -2 5 10 -4 10 -4 23 0 29 4 7 8 17 8
22 2 30 18 75 27 75 6 0 5 7 -3 17 -12 14 -12 16 0 8 11 -6 13 -4 8 8 -3 10
-3 17 2 17 4 0 8 6 9 13 3 42 7 57 15 57 5 0 7 7 3 15 -3 8 -1 15 5 15 6 0 8
4 5 8 -3 5 1 21 9 36 8 15 9 24 3 20 -6 -4 -8 -3 -5 3 9 15 29 66 33 83 4 24
10 43 21 70 6 14 9 29 6 33 -3 4 1 14 7 22 7 8 9 15 5 15 -4 0 -2 6 4 14 7 8
11 20 10 28 -1 7 4 27 11 43 7 17 14 40 15 52 1 12 6 28 12 35 6 7 9 21 8 31
-2 9 2 17 8 17 5 0 8 3 5 6 -4 3 0 21 8 40 8 19 11 34 8 34 -4 0 -1 6 5 13 6
8 9 16 6 19 -3 3 2 21 10 41 8 21 12 37 8 37 -5 0 -1 5 8 10 11 6 15 18 11 35
-2 14 0 25 5 25 5 0 9 8 10 18 2 29 13 74 24 94 5 10 7 22 4 27 -3 5 -1 11 5
13 5 1 11 15 12 31 1 15 6 27 11 27 4 0 5 5 2 10 -4 6 -2 16 3 23 6 7 13 26
16 42 2 17 5 32 6 35 1 3 2 8 1 13 0 4 4 7 9 7 6 0 10 9 10 20 0 11 5 20 10
20 6 0 10 6 10 13 0 8 11 19 25 25 14 6 25 16 25 21 0 6 7 8 15 5 8 -4 15 -1
15 6 0 7 7 10 15 6 8 -3 15 -2 15 2 0 4 23 7 50 6 36 -2 48 1 43 9 -5 9 -3 9
8 1 8 -6 34 -10 59 -9z"/>
</g>
</svg>
